<?xml version="1.0" standalone="no"?><!DOCTYPE svg PUBLIC "-//W3C//DTD SVG 1.1//EN" "http://www.w3.org/Graphics/SVG/1.1/DTD/svg11.dtd"><svg t="1549550210360" class="icon" style="" viewBox="0 0 1024 1024" version="1.1" xmlns="http://www.w3.org/2000/svg" p-id="2687" xmlns:xlink="http://www.w3.org/1999/xlink" width="16" height="16"><defs><style type="text/css"></style></defs><path d="M269.1 218c37 0 67.2-30.2 67.2-67.2V67.2c0-37-30.2-67.2-67.2-67.2s-67.2 30.2-67.2 67.2v83.5c0 37 30.2 67.3 67.2 67.3zM742.6 218c37 0 67.2-30.2 67.2-67.2V67.2c0-37-30.2-67.2-67.2-67.2s-67.2 30.2-67.2 67.2v83.5c0.1 37 30.3 67.3 67.2 67.3z" fill="#2c3e50" p-id="2688"></path><path d="M937.1 139.3h-75.4v57.4c0 34.3-28 62.3-62.3 62.3H670.1c-34.3 0-62.3-28-62.3-62.3v-57.4H417.7v57.4c0 34.3-28 62.3-62.3 62.3H226.1c-34.3 0-62.3-28-62.3-62.3v-57.4h-77c-28.9 0-52.4 23.6-52.4 52.4v779.9c0 28.9 23.6 52.4 52.4 52.4h850.4c28.9 0 52.4-23.6 52.4-52.4V191.7c0-28.8-23.6-52.4-52.5-52.4z m-11.4 822.5H98.2v-639h827.5v639z" fill="#2c3e50" p-id="2689"></path><path d="M160.9 386.7H292v131.1H160.9zM349.4 386.7h131.1v131.1H349.4zM541.1 386.7h131.1v131.1H541.1zM729.5 386.7h131.1v131.1H729.5zM160.9 581.7H292v131.1H160.9zM349.4 581.7h131.1v131.1H349.4zM541.1 581.7h131.1v131.1H541.1zM729.5 581.7h131.1v131.1H729.5zM160.9 770.1H292v131.1H160.9zM349.4 770.1h131.1v131.1H349.4zM541.1 770.1h131.1v131.1H541.1zM729.5 770.1h131.1v131.1H729.5z" fill="#2c3e50" p-id="2690"></path></svg>