<?xml version="1.0" standalone="no"?><!DOCTYPE svg PUBLIC "-//W3C//DTD SVG 1.1//EN" "http://www.w3.org/Graphics/SVG/1.1/DTD/svg11.dtd"><svg t="1546358863202" class="icon" style="" viewBox="0 0 1024 1024" version="1.1" xmlns="http://www.w3.org/2000/svg" p-id="12940" xmlns:xlink="http://www.w3.org/1999/xlink" width="200" height="200"><defs><style type="text/css"></style></defs><path d="M821.505145 582.009544c-41.87278 0-79.093029-30.241452-86.071826-72.114233-13.957593-83.74556-46.525311-160.512324-93.050622-230.30029 58.156639-34.893983 118.639544-60.482905 183.774979-72.114233l60.482905-11.631327L835.462738 163.281743C772.653568 126.061494 651.687759 84.188714 535.374481 84.188714c-34.893983 0-67.461701 4.652531-95.376888 11.631328C353.925767 49.29473 256.222614 23.705809 156.193195 23.705809c-34.893983 0-69.787967 2.326266-104.68195 9.305062l-16.283859 2.326266-2.326266 16.283859c-32.567718 193.080041 27.915187 388.486349 162.838589 523.409751 18.610124 18.610124 37.220249 34.893983 58.156639 51.177842 0 0-2.326266 0-2.326265-2.326265l-30.241453-23.262656-6.978796 37.220249c-11.631328 60.482905 6.978797 123.292075 51.177842 167.49112l30.241452 30.241453 9.305063-41.87278c6.978797-30.241452 18.610124-60.482905 34.893983-86.071826l13.957593-20.93639-9.305062-4.652531c51.177842 25.588921 107.008216 44.199046 165.164855 53.504108 41.87278 6.978797 72.114232 44.199046 72.114232 86.071825v181.448714l27.915187-4.652531c44.199046-9.305062 81.419295-39.546515 100.029419-83.74556l23.262656-55.830374c23.262656-55.830373 67.461701-102.355685 125.61834-125.61834l55.830373-23.262656c44.199046-16.283859 74.440498-53.504108 83.74556-100.029419l4.652532-27.915186h-181.448714z m-535.041079 67.461701s2.326266 0 2.326266 2.326265c0-2.326266 0-2.326266-2.326266-2.326265z" fill="#D5E3EF" p-id="12941"></path><path d="M695.886805 886.750332c-20.93639 27.915187-67.461701 13.957593-67.461702-23.262656v-88.398091c0-23.262656-6.978797-46.525311-20.93639-65.135436 13.957593-9.305062 20.93639-25.588921 20.93639-41.87278s-6.978797-30.241452-18.610124-39.546514v4.652531c0 20.93639-9.305062 41.87278-25.588921 53.504108-13.957593-9.305062-27.915187-18.610124-46.525311-20.93639-86.071826-13.957593-165.164855-46.525311-234.952822-95.376888l-6.978797-6.978797c-44.199046-34.893983-44.199046-100.029419-2.326265-139.575933 65.135436-60.482905 107.008216-148.880996 102.355684-246.58415-41.87278 109.334481-132.597137 195.406307-244.257883 227.974025-62.80917-104.68195-90.724357-227.974025-79.093029-351.2661-6.978797 0-11.631328 2.326266-18.610125 2.326266-18.610124 123.292075 0 248.910415 53.504108 358.244896 0 2.326266 2.326266 2.326266 2.326266 4.652531 6.978797 11.631328 13.957593 23.262656 20.93639 37.220249 2.326266 2.326266 2.326266 4.652531 4.652531 6.978797 20.93639 34.893983 46.525311 67.461701 76.766763 95.376888 81.419295 81.419295 186.101245 134.923402 302.414523 155.859793 53.504108 6.978797 90.724357 53.504108 90.724357 107.008215v153.533527c37.220249-6.978797 67.461701-32.567718 83.74556-69.787967l6.978797-18.610124z" fill="#B0C4D8" p-id="12942"></path><path d="M298.095394 861.161411c-6.978797 0-11.631328-2.326266-16.283859-6.978797l-32.567718-32.567718c-60.482905-60.482905-79.093029-151.207261-44.199045-227.974025 2.326266-6.978797 9.305062-11.631328 16.283858-13.957593 6.978797-2.326266 13.957593 0 20.93639 4.652531 37.220249 32.567718 79.093029 60.482905 125.618341 81.419295 6.978797 2.326266 11.631328 9.305062 11.631328 16.283859s0 13.957593-4.652532 18.610124c-25.588921 34.893983-41.87278 74.440498-48.851576 118.639544l-2.326266 23.262655c-2.326266 9.305062-6.978797 16.283859-16.283859 18.610125h-9.305062z m-62.80917-220.995228c-11.631328 53.504108 4.652531 107.008216 44.199045 146.55473 6.978797-32.567718 20.93639-65.135436 37.220249-93.050623-25.588921-13.957593-53.504108-32.567718-81.419294-53.504107z" fill="#014463" p-id="12943"></path><path d="M928.513361 642.492448l-55.830374 23.262656c-62.80917 25.588921-113.987012 74.440498-139.575933 137.249668l-2.326266 6.978796c27.915187-44.199046 69.787967-79.093029 118.639544-100.029419l55.830373-23.262655c34.893983-13.957593 60.482905-44.199046 67.461701-79.093029-11.631328 16.283859-25.588921 25.588921-44.199045 34.893983z" fill="#B0C4D8" p-id="12944"></path><path d="M1000.627593 558.746888h-179.122448c-32.567718 0-58.156639-23.262656-62.80917-53.504108-13.957593-79.093029-41.87278-153.533527-83.74556-218.668963 51.177842-30.241452 107.008216-48.851577 165.164854-58.156639l41.87278-6.978796c9.305062-2.326266 16.283859-6.978797 18.610125-13.957594 2.326266-6.978797 2.326266-16.283859-4.652531-23.262655C837.789004 112.1039 602.836182 33.010871 444.650124 70.23112 319.031784 5.095685 172.477054-15.840705 30.574855 12.074481 21.269792 14.400747 14.290996 21.379544 11.96473 30.684606c-39.546515 207.037635 20.93639 416.401535 165.164855 558.303734 88.398091 88.398091 202.385104 146.55473 328.003444 167.491121 30.241452 6.978797 53.504108 34.893983 53.504108 65.135435V1000.737344c0 13.957593 9.305062 23.262656 23.262655 23.262656 65.135436 0 125.61834-39.546515 148.880996-100.029419l23.262656-55.830374c20.93639-51.177842 60.482905-93.050622 111.660747-111.660746l55.830373-23.262656c60.482905-25.588921 100.029419-83.74556 100.029419-148.880996 2.326266-16.283859-6.978797-25.588921-20.93639-25.588921zM56.163776 56.273527c107.008216-18.610124 216.342697-6.978797 314.04585 32.567718-18.610124 146.55473-134.923402 262.868008-281.478132 281.478133C49.184979 272.616224 37.553651 163.281743 56.163776 56.273527z m849.086929 632.744232l-55.830373 23.262656c-62.80917 25.588921-113.987012 74.440498-139.575934 137.249668l-23.262656 55.830373c-13.957593 37.220249-46.525311 62.80917-83.74556 69.787967v-153.533527c0-53.504108-39.546515-100.029419-93.050622-109.334481-116.313278-18.610124-220.995228-74.440498-302.414523-155.859793-41.87278-41.87278-76.766763-90.724357-102.355685-144.228464 155.859793-25.588921 279.151867-148.880996 307.067054-307.067054 2.326266 2.326266 6.978797 2.326266 9.305063 4.652531 9.305062 4.652531 20.93639 9.305062 30.241452 16.283859 25.588921 16.283859 48.851577 32.567718 72.114232 51.177842 11.631328 13.957593 23.262656 23.262656 32.567718 32.567718 4.652531 4.652531 11.631328 6.978797 16.283859 6.978797s11.631328-2.326266 16.283859-6.978797c9.305062-9.305062 9.305062-23.262656 0-32.567718-11.631328-11.631328-23.262656-23.262656-34.893983-32.567718-16.283859-13.957593-32.567718-25.588921-48.851577-37.220249 113.987012-9.305062 248.910415 32.567718 318.698381 76.766764-67.461701 11.631328-132.597137 37.220249-193.080041 74.440498-4.652531 2.326266-9.305062 9.305062-9.305062 13.957593-2.326266 6.978797 0 11.631328 4.652531 18.610125 46.525311 67.461701 76.766763 141.902199 88.398091 220.995228 9.305062 53.504108 55.830373 93.050622 109.334481 93.050622H977.364937c-9.305062 37.220249-34.893983 67.461701-72.114232 83.74556z" fill="#014463" p-id="12945"></path><path d="M628.425103 258.658631c58.156639-37.220249 125.61834-62.80917 195.406307-74.440498-32.567718-18.610124-72.114232-23.262656-107.008215-9.305062-25.588921 9.305062-53.504108 23.262656-76.766764 37.220249-20.93639 9.305062-23.262656 32.567718-11.631328 46.525311z" fill="#B0C4D8" p-id="12946"></path><path d="M186.434647 163.281743m-46.525311 0a46.525311 46.525311 0 1 0 93.050622 0 46.525311 46.525311 0 1 0-93.050622 0Z" fill="#014463" p-id="12947"></path><path d="M377.188423 451.738672v4.652531c0 39.546515-32.567718 72.114232-72.114232 72.114233h-4.652532c9.305062 11.631328 23.262656 18.610124 39.546515 18.610124 30.241452 0 53.504108-23.262656 53.504108-53.504108 2.326266-18.610124-4.652531-32.567718-16.283859-41.87278zM493.501701 326.120332v4.652531c0 39.546515-32.567718 72.114232-72.114232 72.114232h-4.652532c9.305062 11.631328 23.262656 18.610124 39.546515 18.610125 30.241452 0 53.504108-23.262656 53.504108-53.504108 2.326266-18.610124-4.652531-32.567718-16.283859-41.87278zM493.501701 186.544398v4.652532c0 39.546515-32.567718 72.114232-72.114232 72.114232h-4.652532c9.305062 11.631328 23.262656 18.610124 39.546515 18.610124C488.84917 279.595021 512.111825 256.332365 512.111825 226.090913c0-16.283859-6.978797-30.241452-18.610124-39.546515zM493.501701 442.43361v4.652531c0 39.546515-32.567718 72.114232-72.114232 72.114232h-4.652532c9.305062 11.631328 23.262656 18.610124 39.546515 18.610125 30.241452 0 53.504108-23.262656 53.504108-53.504108 2.326266-18.610124-4.652531-32.567718-16.283859-41.87278zM633.077635 395.908299v4.652531c0 39.546515-32.567718 72.114232-72.114233 72.114232h-4.652531c9.305062 11.631328 23.262656 18.610124 39.546515 18.610125 30.241452 0 53.504108-23.262656 53.504107-53.504108 2.326266-18.610124-4.652531-32.567718-16.283858-41.87278zM586.552323 512.221577v4.652531c0 39.546515-32.567718 72.114232-72.114232 72.114232h-4.652531c9.305062 11.631328 23.262656 18.610124 39.546514 18.610125 30.241452 0 53.504108-23.262656 53.504108-53.504108 2.326266-18.610124-4.652531-32.567718-16.283859-41.87278zM305.074191 721.585477l13.957593-27.915187c-30.241452-16.283859-58.156639-34.893983-83.74556-53.504107-4.652531 20.93639 6.978797 41.87278 23.262655 53.504107 16.283859 11.631328 30.241452 20.93639 46.525312 27.915187z" fill="#B0C4D8" p-id="12948"></path></svg>